<?xml version="1.0" encoding="utf-8"?>
<!-- Generator: Adobe Illustrator 15.1.0, SVG Export Plug-In . SVG Version: 6.00 Build 0)  -->
<!DOCTYPE svg PUBLIC "-//W3C//DTD SVG 1.1//EN" "http://www.w3.org/Graphics/SVG/1.1/DTD/svg11.dtd">
<svg version="1.1" id="Layer_1" xmlns="http://www.w3.org/2000/svg" xmlns:xlink="http://www.w3.org/1999/xlink" x="0px" y="0px"
	 width="484px" height="194.003px" viewBox="0 0 484 194.003" enable-background="new 0 0 484 194.003" xml:space="preserve">
<g>
	<line fill="none" stroke="#717171" stroke-miterlimit="10" x1="26.409" y1="127.279" x2="50.207" y2="137.532"/>
	<line fill="none" stroke="#686868" stroke-miterlimit="10" x1="14.983" y1="100.305" x2="15.439" y2="107.387"/>
	<line fill="none" stroke="#676767" stroke-miterlimit="10" x1="22.306" y1="119.84" x2="15.439" y2="107.387"/>
	<line fill="none" stroke="#252525" stroke-miterlimit="10" x1="25.604" y1="99.866" x2="15.439" y2="107.387"/>
	<line fill="none" stroke="#C1C1C1" stroke-miterlimit="10" x1="26.656" y1="103.291" x2="24.389" y2="95.91"/>
	<line fill="none" stroke="#252525" stroke-miterlimit="10" x1="25.604" y1="99.866" x2="28.027" y2="98.073"/>
	<line fill="none" stroke="#1D1D1D" stroke-miterlimit="10" x1="29.185" y1="93.67" x2="28.027" y2="98.073"/>
	<line fill="none" stroke="#676767" stroke-miterlimit="10" x1="22.306" y1="119.84" x2="26.409" y2="127.279"/>
	<path fill="none" stroke="#B4B4B4" stroke-miterlimit="10" d="M31.866,120.247l27.163,5.699 M31.866,120.247l-5.458,7.032"/>
	<line fill="none" stroke="#C1C1C1" stroke-miterlimit="10" x1="26.656" y1="103.291" x2="31.866" y2="120.247"/>
	<line fill="none" stroke="#1A1A1A" stroke-miterlimit="10" x1="28.027" y1="98.073" x2="51.829" y2="108.252"/>
	<line fill="none" stroke="#DBDBDB" stroke-miterlimit="10" x1="40.87" y1="88.21" x2="24.389" y2="95.91"/>
	<line fill="none" stroke="#686868" stroke-miterlimit="10" x1="14.983" y1="100.305" x2="14.111" y2="86.754"/>
	<line fill="none" stroke="#C6C6C6" stroke-miterlimit="10" x1="24.389" y1="95.91" x2="14.111" y2="86.754"/>
	<line fill="none" stroke="#8B8B8B" stroke-miterlimit="10" x1="14.111" y1="86.754" x2="26.007" y2="66.704"/>
	<line fill="none" stroke="#434343" stroke-miterlimit="10" x1="31.643" y1="71.336" x2="26.007" y2="66.704"/>
	<line fill="none" stroke="#747474" stroke-miterlimit="10" x1="28.475" y1="65.543" x2="26.007" y2="66.704"/>
	<line fill="none" stroke="#1D1D1D" stroke-miterlimit="10" x1="29.185" y1="93.67" x2="33.947" y2="75.55"/>
	<line fill="none" stroke="#CACACA" stroke-miterlimit="10" x1="60.225" y1="123.604" x2="59.029" y2="125.946"/>
	<line fill="none" stroke="#B8B8B8" stroke-miterlimit="10" x1="62.13" y1="128.575" x2="59.029" y2="125.946"/>
	<line fill="none" stroke="#555555" stroke-miterlimit="10" x1="50.207" y1="137.532" x2="62.706" y2="128.143"/>
	<line fill="none" stroke="#808080" stroke-miterlimit="10" x1="67.455" y1="136.827" x2="50.207" y2="137.532"/>
	<line fill="none" stroke="#B8B8B8" stroke-miterlimit="10" x1="62.13" y1="128.575" x2="63.645" y2="129.859"/>
	<line fill="none" stroke="#1A1A1A" stroke-miterlimit="10" x1="62.706" y1="128.143" x2="51.829" y2="108.252"/>
	<line fill="none" stroke="#808080" stroke-miterlimit="10" x1="67.455" y1="136.827" x2="71.662" y2="136.655"/>
	<line fill="none" stroke="#434343" stroke-miterlimit="10" x1="31.643" y1="71.336" x2="34.448" y2="73.642"/>
	<line fill="none" stroke="#2A2A2A" stroke-miterlimit="10" x1="33.947" y1="75.55" x2="34.448" y2="73.642"/>
	<line fill="none" stroke="#B1B1B1" stroke-miterlimit="10" x1="63.645" y1="129.859" x2="71.662" y2="136.655"/>
	<line fill="none" stroke="#DBDBDB" stroke-miterlimit="10" x1="40.87" y1="88.21" x2="46.851" y2="85.416"/>
	<line fill="none" stroke="#000000" stroke-miterlimit="10" x1="62.362" y1="98.866" x2="51.829" y2="108.252"/>
	<line fill="none" stroke="#E3E3E3" stroke-miterlimit="10" x1="69.635" y1="105.171" x2="46.851" y2="85.416"/>
	<line fill="none" stroke="#DFDFDF" stroke-miterlimit="10" x1="48.363" y1="82.849" x2="46.851" y2="85.416"/>
	<line fill="none" stroke="#000000" stroke-miterlimit="10" x1="62.362" y1="98.866" x2="63.957" y2="97.445"/>
	<line fill="none" stroke="#2A2A2A" stroke-miterlimit="10" x1="37.756" y1="72.919" x2="34.448" y2="73.642"/>
	<line fill="none" stroke="#CACACA" stroke-miterlimit="10" x1="60.225" y1="123.604" x2="69.635" y2="105.171"/>
	<line fill="none" stroke="#2C2C2C" stroke-miterlimit="10" x1="89.788" y1="121.625" x2="62.706" y2="128.143"/>
	<line fill="none" stroke="#E1E1E1" stroke-miterlimit="10" x1="71.423" y1="104.434" x2="69.635" y2="105.171"/>
	<line fill="none" stroke="#2C2C2C" stroke-miterlimit="10" x1="89.788" y1="121.625" x2="95.326" y2="126.81"/>
	<line fill="none" stroke="#CBCBCB" stroke-miterlimit="10" x1="56.646" y1="68.794" x2="48.363" y2="82.849"/>
	<line fill="none" stroke="#000000" stroke-miterlimit="10" x1="63.957" y1="97.445" x2="74.348" y2="88.187"/>
	<line fill="none" stroke="#E1E1E1" stroke-miterlimit="10" x1="71.423" y1="104.434" x2="81.446" y2="100.298"/>
	<line fill="none" stroke="#282828" stroke-miterlimit="10" x1="91.189" y1="116.925" x2="89.788" y2="121.625"/>
	<line fill="none" stroke="#2A2A2A" stroke-miterlimit="10" x1="37.756" y1="72.919" x2="62.264" y2="67.567"/>
	<line fill="none" stroke="#CBCBCB" stroke-miterlimit="10" x1="56.646" y1="68.794" x2="58.663" y2="65.37"/>
	<line fill="none" stroke="#717171" stroke-miterlimit="10" x1="95.326" y1="126.81" x2="71.662" y2="136.655"/>
	<line fill="none" stroke="#737373" stroke-miterlimit="10" x1="96.101" y1="125.305" x2="95.326" y2="126.81"/>
	<line fill="none" stroke="#747474" stroke-miterlimit="10" x1="28.475" y1="65.543" x2="38.351" y2="60.897"/>
	<line fill="none" stroke="#1A1A1A" stroke-miterlimit="10" x1="62.264" y1="67.567" x2="74.348" y2="88.187"/>
	<line fill="none" stroke="#C7C7C7" stroke-miterlimit="10" x1="92.451" y1="95.758" x2="81.446" y2="100.298"/>
	<line fill="none" stroke="#181818" stroke-miterlimit="10" x1="95.001" y1="96.824" x2="74.348" y2="88.187"/>
	<line fill="none" stroke="#C7C7C7" stroke-miterlimit="10" x1="92.451" y1="95.758" x2="93.304" y2="95.405"/>
	<line fill="none" stroke="#B7B7B7" stroke-miterlimit="10" x1="96.516" y1="98.09" x2="93.304" y2="95.405"/>
	<line fill="none" stroke="#181818" stroke-miterlimit="10" x1="95.001" y1="96.824" x2="96.943" y2="97.636"/>
	<line fill="none" stroke="#B4B4B4" stroke-miterlimit="10" x1="86.56" y1="71.512" x2="93.304" y2="95.405"/>
	<line fill="none" stroke="#666666" stroke-miterlimit="10" x1="99.75" y1="74.416" x2="107.087" y2="86.849"/>
	<line fill="none" stroke="#202020" stroke-miterlimit="10" x1="63.344" y1="66.4" x2="62.264" y2="67.567"/>
	<line fill="none" stroke="#1A1A1A" stroke-miterlimit="10" x1="96.943" y1="97.636" x2="107.087" y2="86.849"/>
	<line fill="none" stroke="#1A1A1A" stroke-miterlimit="10" x1="96.749" y1="98.285" x2="91.189" y2="116.925"/>
	<line fill="none" stroke="#737373" stroke-miterlimit="10" x1="96.101" y1="125.305" x2="106.024" y2="106.037"/>
	<line fill="none" stroke="#B7B7B7" stroke-miterlimit="10" x1="96.516" y1="98.09" x2="106.024" y2="106.037"/>
	<line fill="none" stroke="#1A1A1A" stroke-miterlimit="10" x1="96.749" y1="98.285" x2="96.943" y2="97.636"/>
	<line fill="none" stroke="#555555" stroke-miterlimit="10" x1="107.087" y1="86.849" x2="106.024" y2="106.037"/>
	<line fill="none" stroke="#B4B4B4" stroke-miterlimit="10" x1="86.56" y1="71.512" x2="58.663" y2="65.37"/>
	<line fill="none" stroke="#666666" stroke-miterlimit="10" x1="99.75" y1="74.416" x2="94.92" y2="66.232"/>
	<line fill="none" stroke="#B4B4B4" stroke-miterlimit="10" x1="86.56" y1="71.512" x2="94.92" y2="66.232"/>
	<line fill="none" stroke="#C6C6C6" stroke-miterlimit="10" x1="58.663" y1="65.37" x2="48.473" y2="56.136"/>
	<line fill="none" stroke="#202020" stroke-miterlimit="10" x1="63.344" y1="66.4" x2="72.32" y2="56.703"/>
	<path fill="none" stroke="#555555" stroke-miterlimit="10" d="M72.32,56.703l22.6,9.529 M72.32,56.703l-23.848-0.567"/>
	<line fill="none" stroke="#7F7F7F" stroke-miterlimit="10" x1="38.351" y1="60.897" x2="48.473" y2="56.136"/>
</g>
<g>
	<line fill="none" stroke="#636363" stroke-miterlimit="10" x1="309.627" y1="140.708" x2="313.078" y2="147.077"/>
	<line fill="none" stroke="#686868" stroke-miterlimit="10" x1="321.188" y1="151.602" x2="313.078" y2="147.077"/>
	<line fill="none" stroke="#343434" stroke-miterlimit="10" x1="320.587" y1="149.598" x2="313.078" y2="147.077"/>
	<line fill="none" stroke="#262626" stroke-miterlimit="10" x1="316.59" y1="136.249" x2="320.587" y2="149.598"/>
	<line fill="none" stroke="#686868" stroke-miterlimit="10" x1="321.188" y1="151.602" x2="338.272" y2="161.135"/>
	<line fill="none" stroke="#343434" stroke-miterlimit="10" x1="338.279" y1="158.904" x2="320.587" y2="149.598"/>
	<line fill="none" stroke="#B0B0B0" stroke-miterlimit="10" x1="338.378" y1="126.609" x2="336.643" y2="123.408"/>
	<line fill="none" stroke="#B4B4B4" stroke-miterlimit="10" x1="338.391" y1="122.289" x2="336.643" y2="123.408"/>
	<line fill="none" stroke="#636363" stroke-miterlimit="10" x1="309.627" y1="140.708" x2="299.587" y2="122.175"/>
	<line fill="none" stroke="#262626" stroke-miterlimit="10" x1="316.59" y1="136.249" x2="313.806" y2="126.951"/>
	<line fill="none" stroke="#232323" stroke-miterlimit="10" x1="307.118" y1="114.61" x2="313.806" y2="126.951"/>
	<line fill="none" stroke="#090909" stroke-miterlimit="10" x1="331.896" y1="120.759" x2="313.806" y2="126.951"/>
	<line fill="none" stroke="#9B9B9B" stroke-miterlimit="10" x1="312.032" y1="109.675" x2="336.643" y2="123.408"/>
	<line fill="none" stroke="#090909" stroke-miterlimit="10" x1="331.896" y1="120.759" x2="338.402" y2="118.532"/>
	<line fill="none" stroke="#9B9B9B" stroke-miterlimit="10" x1="312.032" y1="109.675" x2="299.587" y2="122.175"/>
	<line fill="none" stroke="#606060" stroke-miterlimit="10" x1="295.091" y1="107.165" x2="299.587" y2="122.175"/>
	<line fill="none" stroke="#232323" stroke-miterlimit="10" x1="307.118" y1="114.61" x2="301.381" y2="104.02"/>
	<line fill="none" stroke="#9B9B9B" stroke-miterlimit="10" x1="312.065" y1="98.678" x2="312.032" y2="109.675"/>
	<line fill="none" stroke="#030303" stroke-miterlimit="10" x1="338.482" y1="92.131" x2="338.402" y2="118.532"/>
	<line fill="none" stroke="#797979" stroke-miterlimit="10" x1="338.272" y1="161.135" x2="340.624" y2="162.447"/>
	<line fill="none" stroke="#818181" stroke-miterlimit="10" x1="342.134" y1="160.931" x2="340.624" y2="162.447"/>
	<line fill="none" stroke="#7C7C7C" stroke-miterlimit="10" x1="340.624" y1="162.447" x2="365.159" y2="174.469"/>
	<line fill="none" stroke="#343434" stroke-miterlimit="10" x1="352.774" y1="166.528" x2="365.159" y2="174.469"/>
	<line fill="none" stroke="#616161" stroke-miterlimit="10" x1="367.807" y1="174.435" x2="365.159" y2="174.469"/>
	<line fill="none" stroke="#343434" stroke-miterlimit="10" x1="339.345" y1="159.464" x2="352.774" y2="166.528"/>
	<line fill="none" stroke="#818181" stroke-miterlimit="10" x1="342.134" y1="160.931" x2="343.649" y2="159.408"/>
	<line fill="none" stroke="#696969" stroke-miterlimit="10" x1="385.312" y1="174.208" x2="367.807" y2="174.435"/>
	<line fill="none" stroke="#1C1C1C" stroke-miterlimit="10" x1="374.751" y1="159.006" x2="352.774" y2="166.528"/>
	<line fill="none" stroke="#A1A1A1" stroke-miterlimit="10" x1="404.679" y1="158.619" x2="410.644" y2="161.542"/>
	<line fill="none" stroke="#343434" stroke-miterlimit="10" x1="413.894" y1="159.916" x2="411.729" y2="158.528"/>
	<line fill="none" stroke="#9B9B9B" stroke-miterlimit="10" x1="416.801" y1="158.462" x2="410.644" y2="161.542"/>
	<line fill="none" stroke="#696969" stroke-miterlimit="10" x1="385.312" y1="174.208" x2="398.198" y2="174.042"/>
	<line fill="none" stroke="#555555" stroke-miterlimit="10" x1="422.794" y1="165.623" x2="398.198" y2="174.042"/>
	<line fill="none" stroke="#6F6F6F" stroke-miterlimit="10" x1="398.198" y1="174.042" x2="410.644" y2="161.542"/>
	<line fill="none" stroke="#343434" stroke-miterlimit="10" x1="413.894" y1="159.916" x2="422.794" y2="165.623"/>
	<line fill="none" stroke="#606060" stroke-miterlimit="10" x1="434.33" y1="158.236" x2="422.794" y2="165.623"/>
	<line fill="none" stroke="#1C1C1C" stroke-miterlimit="10" x1="374.751" y1="159.006" x2="411.729" y2="158.528"/>
	<line fill="none" stroke="#343434" stroke-miterlimit="10" x1="339.345" y1="159.464" x2="338.279" y2="158.904"/>
	<line fill="none" stroke="#A7A7A7" stroke-miterlimit="10" x1="347.518" y1="143.479" x2="351.743" y2="151.278"/>
	<line fill="none" stroke="#040404" stroke-miterlimit="10" x1="367.651" y1="135.299" x2="367.159" y2="133.658"/>
	<line fill="none" stroke="#030303" stroke-miterlimit="10" x1="371.393" y1="131.541" x2="367.159" y2="133.658"/>
	<line fill="none" stroke="#A7A7A7" stroke-miterlimit="10" x1="347.518" y1="143.479" x2="338.378" y2="126.609"/>
	<line fill="none" stroke="#030303" stroke-miterlimit="10" x1="341.616" y1="120.223" x2="367.159" y2="133.658"/>
	<line fill="none" stroke="#868686" stroke-miterlimit="10" x1="343.649" y1="159.408" x2="351.743" y2="151.278"/>
	<line fill="none" stroke="#ABABAB" stroke-miterlimit="10" x1="372.356" y1="151.012" x2="351.743" y2="151.278"/>
	<line fill="none" stroke="#040404" stroke-miterlimit="10" x1="367.651" y1="135.299" x2="374.751" y2="159.006"/>
	<line fill="none" stroke="#ABABAB" stroke-miterlimit="10" x1="372.356" y1="151.012" x2="388.723" y2="150.8"/>
	<line fill="none" stroke="#B2B2B2" stroke-miterlimit="10" x1="388.723" y1="150.8" x2="396.476" y2="122.634"/>
	<line fill="none" stroke="#A1A1A1" stroke-miterlimit="10" x1="404.679" y1="158.619" x2="388.723" y2="150.8"/>
	<line fill="none" stroke="#030303" stroke-miterlimit="10" x1="371.393" y1="131.541" x2="392.934" y2="120.771"/>
	<line fill="none" stroke="#B4B4B4" stroke-miterlimit="10" x1="338.391" y1="122.289" x2="364.289" y2="105.705"/>
	<line fill="none" stroke="#030303" stroke-miterlimit="10" x1="341.616" y1="120.223" x2="338.402" y2="118.532"/>
	<line fill="none" stroke="#1F1F1F" stroke-miterlimit="10" x1="424.364" y1="137.302" x2="411.729" y2="158.528"/>
	<line fill="none" stroke="#9B9B9B" stroke-miterlimit="10" x1="416.801" y1="158.462" x2="441.302" y2="146.211"/>
	<line fill="none" stroke="#606060" stroke-miterlimit="10" x1="434.33" y1="158.236" x2="447.784" y2="149.62"/>
	<line fill="none" stroke="#CECECE" stroke-miterlimit="10" x1="364.289" y1="105.705" x2="396.476" y2="122.634"/>
	<line fill="none" stroke="#030303" stroke-miterlimit="10" x1="338.482" y1="92.131" x2="338.503" y2="85.459"/>
	<line fill="none" stroke="#1F1F1F" stroke-miterlimit="10" x1="424.364" y1="137.302" x2="426.993" y2="132.884"/>
	<line fill="none" stroke="#CECECE" stroke-miterlimit="10" x1="402.883" y1="119.431" x2="396.476" y2="122.634"/>
	<line fill="none" stroke="#9D9D9D" stroke-miterlimit="10" x1="443.794" y1="142.259" x2="442.931" y2="145.396"/>
	<line fill="none" stroke="#9B9B9B" stroke-miterlimit="10" x1="441.302" y1="146.211" x2="442.931" y2="145.396"/>
	<line fill="none" stroke="#6C6C6C" stroke-miterlimit="10" x1="447.784" y1="149.62" x2="450.441" y2="147.919"/>
	<line fill="none" stroke="#6F6F6F" stroke-miterlimit="10" x1="450.441" y1="147.919" x2="442.931" y2="145.396"/>
	<line fill="none" stroke="#6E6E6E" stroke-miterlimit="10" x1="451.313" y1="146.454" x2="450.441" y2="147.919"/>
	<line fill="none" stroke="#030303" stroke-miterlimit="10" x1="399.448" y1="117.514" x2="426.993" y2="132.884"/>
	<line fill="none" stroke="#B4B4B4" stroke-miterlimit="10" x1="448.099" y1="119.369" x2="425.323" y2="108.21"/>
	<path fill="none" stroke="#CECECE" stroke-miterlimit="10" d="M425.335,104.57l-0.012,3.64 M402.883,119.431l22.44-11.221"/>
	<line fill="none" stroke="#1C1C1C" stroke-miterlimit="10" x1="426.993" y1="132.884" x2="451.694" y2="117.066"/>
	<line fill="none" stroke="#B4B4B4" stroke-miterlimit="10" x1="448.099" y1="119.369" x2="449.858" y2="120.231"/>
	<line fill="none" stroke="#9D9D9D" stroke-miterlimit="10" x1="443.794" y1="142.259" x2="449.858" y2="120.231"/>
	<line fill="none" stroke="#B0B0B0" stroke-miterlimit="10" x1="451.729" y1="117.089" x2="449.858" y2="120.231"/>
	<line fill="none" stroke="#6E6E6E" stroke-miterlimit="10" x1="451.313" y1="146.454" x2="460.292" y2="131.369"/>
	<line fill="none" stroke="#383838" stroke-miterlimit="10" x1="452.995" y1="117.901" x2="451.694" y2="117.066"/>
	<line fill="none" stroke="#343434" stroke-miterlimit="10" x1="451.698" y1="115.508" x2="451.694" y2="117.066"/>
	<line fill="none" stroke="#B0B0B0" stroke-miterlimit="10" x1="451.729" y1="117.089" x2="452.161" y2="116.362"/>
	<path fill="none" stroke="#030303" stroke-miterlimit="10" d="M399.537,87.964l-0.089,29.549 M392.934,120.771l6.515-3.257"/>
	<line fill="none" stroke="#CECECE" stroke-miterlimit="10" x1="425.335" y1="104.57" x2="425.425" y2="75.136"/>
	<line fill="none" stroke="#CECECE" stroke-miterlimit="10" x1="422.21" y1="73.446" x2="425.425" y2="75.136"/>
	<line fill="none" stroke="#CACACA" stroke-miterlimit="10" x1="429.136" y1="73.866" x2="425.425" y2="75.136"/>
	<line fill="none" stroke="#030303" stroke-miterlimit="10" x1="399.537" y1="87.964" x2="427.183" y2="70.261"/>
	<line fill="none" stroke="#CECECE" stroke-miterlimit="10" x1="364.379" y1="76.155" x2="364.289" y2="105.705"/>
	<line fill="none" stroke="#030303" stroke-miterlimit="10" x1="370.893" y1="72.898" x2="399.537" y2="87.964"/>
	<line fill="none" stroke="#CECECE" stroke-miterlimit="10" x1="422.21" y1="73.446" x2="396.667" y2="60.011"/>
	<line fill="none" stroke="#CECECE" stroke-miterlimit="10" x1="396.667" y1="60.011" x2="364.379" y2="76.155"/>
	<line fill="none" stroke="#CBCBCB" stroke-miterlimit="10" x1="360.943" y1="74.238" x2="364.379" y2="76.155"/>
	<line fill="none" stroke="#030303" stroke-miterlimit="10" x1="370.893" y1="72.898" x2="367.351" y2="71.035"/>
	<line fill="none" stroke="#CBCBCB" stroke-miterlimit="10" x1="395.72" y1="56.85" x2="396.667" y2="60.011"/>
	<line fill="none" stroke="#292929" stroke-miterlimit="10" x1="414.759" y1="47.33" x2="427.183" y2="70.261"/>
	<line fill="none" stroke="#212121" stroke-miterlimit="10" x1="431.931" y1="72.91" x2="451.794" y2="83.994"/>
	<line fill="none" stroke="#343434" stroke-miterlimit="10" x1="451.698" y1="115.508" x2="451.794" y2="83.994"/>
	<line fill="none" stroke="#454545" stroke-miterlimit="10" x1="456.708" y1="79.059" x2="451.794" y2="83.994"/>
	<line fill="none" stroke="#CACACA" stroke-miterlimit="10" x1="429.136" y1="73.866" x2="450.021" y2="66.717"/>
	<line fill="none" stroke="#212121" stroke-miterlimit="10" x1="431.931" y1="72.91" x2="427.183" y2="70.261"/>
	<line fill="none" stroke="#9B9B9B" stroke-miterlimit="10" x1="435.562" y1="40.033" x2="432.536" y2="38.441"/>
	<line fill="none" stroke="#B2B2B2" stroke-miterlimit="10" x1="450.021" y1="66.717" x2="465.122" y2="94.588"/>
	<line fill="none" stroke="#9B9B9B" stroke-miterlimit="10" x1="443.239" y1="44.071" x2="450.021" y2="66.717"/>
	<line fill="none" stroke="#6E6E6E" stroke-miterlimit="10" x1="451.83" y1="48.59" x2="464.239" y2="71.494"/>
	<line fill="none" stroke="#454545" stroke-miterlimit="10" x1="456.708" y1="79.059" x2="464.239" y2="71.494"/>
	<line fill="none" stroke="#727272" stroke-miterlimit="10" x1="469.136" y1="87.843" x2="464.239" y2="71.494"/>
	<line fill="none" stroke="#9B9B9B" stroke-miterlimit="10" x1="435.562" y1="40.033" x2="443.239" y2="44.071"/>
	<line fill="none" stroke="#6F6F6F" stroke-miterlimit="10" x1="450.748" y1="46.592" x2="443.239" y2="44.071"/>
	<line fill="none" stroke="#606060" stroke-miterlimit="10" x1="434.437" y1="37.491" x2="450.748" y2="46.592"/>
	<line fill="none" stroke="#6E6E6E" stroke-miterlimit="10" x1="451.83" y1="48.59" x2="450.748" y2="46.592"/>
	<line fill="none" stroke="#AFAFAF" stroke-miterlimit="10" x1="452.161" y1="116.362" x2="465.122" y2="94.588"/>
	<line fill="none" stroke="#383838" stroke-miterlimit="10" x1="452.995" y1="117.901" x2="464.077" y2="125.007"/>
	<line fill="none" stroke="#5F5F5F" stroke-miterlimit="10" x1="464.077" y1="125.007" x2="471.831" y2="96.842"/>
	<line fill="none" stroke="#646464" stroke-miterlimit="10" x1="460.292" y1="131.369" x2="464.077" y2="125.007"/>
	<line fill="none" stroke="#7C7C7C" stroke-miterlimit="10" x1="471.831" y1="96.842" x2="465.122" y2="94.588"/>
	<line fill="none" stroke="#727272" stroke-miterlimit="10" x1="469.136" y1="87.843" x2="471.831" y2="96.842"/>
	<line fill="none" stroke="#030303" stroke-miterlimit="10" x1="367.351" y1="71.035" x2="338.503" y2="85.459"/>
	<line fill="none" stroke="#5E5E5E" stroke-miterlimit="10" x1="294.69" y1="105.825" x2="291.995" y2="96.827"/>
	<line fill="none" stroke="#2C2C2C" stroke-miterlimit="10" x1="298.704" y1="99.081" x2="291.995" y2="96.827"/>
	<line fill="none" stroke="#555555" stroke-miterlimit="10" x1="291.995" y1="96.827" x2="299.749" y2="68.662"/>
	<line fill="none" stroke="#9A9A9A" stroke-miterlimit="10" x1="312.098" y1="76.58" x2="299.749" y2="68.662"/>
	<line fill="none" stroke="#6E6E6E" stroke-miterlimit="10" x1="300.759" y1="66.965" x2="299.749" y2="68.662"/>
	<line fill="none" stroke="#1C1C1C" stroke-miterlimit="10" x1="313.968" y1="73.438" x2="298.704" y2="99.081"/>
	<line fill="none" stroke="#5E5E5E" stroke-miterlimit="10" x1="294.69" y1="105.825" x2="295.091" y2="107.165"/>
	<line fill="none" stroke="#292929" stroke-miterlimit="10" x1="301.381" y1="104.02" x2="298.704" y2="99.081"/>
	<line fill="none" stroke="#9B9B9B" stroke-miterlimit="10" x1="312.065" y1="98.678" x2="312.132" y2="76.602"/>
	<line fill="none" stroke="#9E9E9E" stroke-miterlimit="10" x1="315.728" y1="74.3" x2="312.132" y2="76.602"/>
	<line fill="none" stroke="#9A9A9A" stroke-miterlimit="10" x1="312.098" y1="76.58" x2="312.132" y2="76.602"/>
	<line fill="none" stroke="#030303" stroke-miterlimit="10" x1="338.503" y1="85.459" x2="313.968" y2="73.438"/>
	<line fill="none" stroke="#6E6E6E" stroke-miterlimit="10" x1="300.759" y1="66.965" x2="313.385" y2="45.75"/>
	<line fill="none" stroke="#343434" stroke-miterlimit="10" x1="320.896" y1="48.272" x2="313.385" y2="45.75"/>
	<line fill="none" stroke="#6A6A6A" stroke-miterlimit="10" x1="323.345" y1="39.372" x2="313.385" y2="45.75"/>
	<line fill="none" stroke="#1C1C1C" stroke-miterlimit="10" x1="313.968" y1="73.438" x2="320.896" y2="48.272"/>
	<line fill="none" stroke="#CBCBCB" stroke-miterlimit="10" x1="360.943" y1="74.238" x2="336.832" y2="60.785"/>
	<line fill="none" stroke="#222222" stroke-miterlimit="10" x1="369.271" y1="40.011" x2="375.104" y2="42.869"/>
	<line fill="none" stroke="#9E9E9E" stroke-miterlimit="10" x1="315.728" y1="74.3" x2="336.832" y2="60.785"/>
	<line fill="none" stroke="#B2B2B2" stroke-miterlimit="10" x1="336.832" y1="60.785" x2="352.097" y2="35.141"/>
	<line fill="none" stroke="#222222" stroke-miterlimit="10" x1="369.271" y1="40.011" x2="359.146" y2="35.05"/>
	<line fill="none" stroke="#343434" stroke-miterlimit="10" x1="347.025" y1="35.207" x2="320.896" y2="48.272"/>
	<line fill="none" stroke="#6A6A6A" stroke-miterlimit="10" x1="323.345" y1="39.372" x2="329.496" y2="35.433"/>
	<line fill="none" stroke="#030303" stroke-miterlimit="10" x1="367.351" y1="71.035" x2="375.104" y2="42.869"/>
	<line fill="none" stroke="#232323" stroke-miterlimit="10" x1="391.47" y1="42.657" x2="375.104" y2="42.869"/>
	<line fill="none" stroke="#A2A2A2" stroke-miterlimit="10" x1="352.097" y1="35.141" x2="389.075" y2="34.663"/>
	<line fill="none" stroke="#343434" stroke-miterlimit="10" x1="349.932" y1="33.753" x2="347.025" y2="35.207"/>
	<line fill="none" stroke="#7C7C7C" stroke-miterlimit="10" x1="341.032" y1="28.046" x2="352.097" y2="35.141"/>
	<line fill="none" stroke="#343434" stroke-miterlimit="10" x1="349.932" y1="33.753" x2="353.183" y2="32.127"/>
	<line fill="none" stroke="#797979" stroke-miterlimit="10" x1="343.282" y1="27.276" x2="341.032" y2="28.046"/>
	<line fill="none" stroke="#2D2D2D" stroke-miterlimit="10" x1="359.146" y1="35.05" x2="353.183" y2="32.127"/>
	<line fill="none" stroke="#343434" stroke-miterlimit="10" x1="353.183" y1="32.127" x2="365.628" y2="19.627"/>
	<line fill="none" stroke="#797979" stroke-miterlimit="10" x1="343.282" y1="27.276" x2="365.628" y2="19.627"/>
	<line fill="none" stroke="#686868" stroke-miterlimit="10" x1="384.5" y1="19.383" x2="365.628" y2="19.627"/>
	<line fill="none" stroke="#707070" stroke-miterlimit="10" x1="329.496" y1="35.433" x2="341.032" y2="28.046"/>
	<line fill="none" stroke="#CBCBCB" stroke-miterlimit="10" x1="395.72" y1="56.85" x2="389.075" y2="34.663"/>
	<line fill="none" stroke="#292929" stroke-miterlimit="10" x1="414.759" y1="47.33" x2="412.083" y2="42.391"/>
	<line fill="none" stroke="#4D4D4D" stroke-miterlimit="10" x1="420.947" y1="33.486" x2="412.083" y2="42.391"/>
	<line fill="none" stroke="#232323" stroke-miterlimit="10" x1="391.47" y1="42.657" x2="412.083" y2="42.391"/>
	<line fill="none" stroke="#9B9B9B" stroke-miterlimit="10" x1="411.052" y1="27.141" x2="389.075" y2="34.663"/>
	<line fill="none" stroke="#686868" stroke-miterlimit="10" x1="384.5" y1="19.383" x2="398.667" y2="19.2"/>
	<path fill="none" stroke="#9B9B9B" stroke-miterlimit="10" d="M421.692,32.738l10.844,5.704 M411.052,27.141L398.667,19.2"/>
	<line fill="none" stroke="#606060" stroke-miterlimit="10" x1="434.437" y1="37.491" x2="423.202" y2="31.222"/>
	<line fill="none" stroke="#4D4D4D" stroke-miterlimit="10" x1="420.947" y1="33.486" x2="423.202" y2="31.222"/>
	<line fill="none" stroke="#9B9B9B" stroke-miterlimit="10" x1="421.692" y1="32.738" x2="411.052" y2="27.141"/>
	<line fill="none" stroke="#555555" stroke-miterlimit="10" x1="423.202" y1="31.222" x2="398.667" y2="19.2"/>
</g>
<g>
	<path fill="none" stroke="#717171" stroke-miterlimit="10" d="M141.737,126.926l-0.685-0.685l0.804-11.27 M141.737,126.926
		l-0.685-0.685"/>
	<line fill="none" stroke="#393939" stroke-miterlimit="10" x1="141.856" y1="114.972" x2="141.052" y2="126.242"/>
	<line fill="none" stroke="#797979" stroke-miterlimit="10" x1="141.767" y1="123.897" x2="141.052" y2="126.242"/>
	<line fill="none" stroke="#797979" stroke-miterlimit="10" x1="141.767" y1="123.897" x2="141.052" y2="126.242"/>
	<path fill="none" stroke="#393939" stroke-miterlimit="10" d="M141.934,107.031l-0.078,7.941 M141.934,107.031l-0.078,7.941"/>
	<path fill="none" stroke="#717171" stroke-miterlimit="10" d="M152.594,137.789l11.248,11.252l16.496,2.723 M152.594,137.789
		l11.248,11.252"/>
	<line fill="none" stroke="#3B3B3B" stroke-miterlimit="10" x1="180.338" y1="151.765" x2="163.842" y2="149.042"/>
	<line fill="none" stroke="#939393" stroke-miterlimit="10" x1="177.622" y1="147.32" x2="163.842" y2="149.042"/>
	<line fill="none" stroke="#939393" stroke-miterlimit="10" x1="177.622" y1="147.32" x2="163.842" y2="149.042"/>
	<line fill="none" stroke="#1A1A1A" stroke-miterlimit="10" x1="167.612" y1="130.942" x2="180.338" y2="151.765"/>
	<line fill="none" stroke="#3B3B3B" stroke-miterlimit="10" x1="180.338" y1="151.765" x2="167.612" y2="130.942"/>
	<line fill="none" stroke="#3B3B3B" stroke-miterlimit="10" x1="187.33" y1="151.777" x2="180.338" y2="151.765"/>
	<line fill="none" stroke="#3B3B3B" stroke-miterlimit="10" x1="187.33" y1="151.777" x2="180.338" y2="151.765"/>
	<line fill="none" stroke="#939393" stroke-miterlimit="10" x1="177.622" y1="147.32" x2="185.196" y2="146.374"/>
	<line fill="none" stroke="#939393" stroke-miterlimit="10" x1="177.622" y1="147.32" x2="185.196" y2="146.374"/>
	<path fill="none" stroke="#111111" stroke-miterlimit="10" d="M177.346,126.504l-9.734,4.438 M177.346,126.504l-9.734,4.438"/>
	<path fill="none" stroke="#717171" stroke-miterlimit="10" d="M152.594,137.789l-10.857-10.863 M152.594,137.789l-10.857-10.863"/>
	<line fill="none" stroke="#909090" stroke-miterlimit="10" x1="144.069" y1="116.344" x2="141.767" y2="123.897"/>
	<line fill="none" stroke="#909090" stroke-miterlimit="10" x1="144.069" y1="116.344" x2="141.767" y2="123.897"/>
	<line fill="none" stroke="#393939" stroke-miterlimit="10" x1="141.856" y1="114.972" x2="167.612" y2="130.942"/>
	<line fill="none" stroke="#1A1A1A" stroke-miterlimit="10" x1="167.612" y1="130.942" x2="141.856" y2="114.972"/>
	<line fill="none" stroke="#909090" stroke-miterlimit="10" x1="144.069" y1="116.344" x2="146.333" y2="108.913"/>
	<line fill="none" stroke="#909090" stroke-miterlimit="10" x1="144.069" y1="116.344" x2="146.333" y2="108.913"/>
	<line fill="none" stroke="#C6C6C6" stroke-miterlimit="10" x1="175.292" y1="121.304" x2="146.333" y2="108.913"/>
	<line fill="none" stroke="#A7A7A7" stroke-miterlimit="10" x1="146.333" y1="108.913" x2="175.292" y2="121.304"/>
	<path fill="none" stroke="#393939" stroke-miterlimit="10" d="M141.934,107.031l0.209-21.113 M141.934,107.031l0.209-21.113"/>
	<path fill="none" stroke="#A7A7A7" stroke-miterlimit="10" d="M146.355,83.728l-0.022,25.185 M146.355,83.728l-0.022,25.185"/>
	<line fill="none" stroke="#252525" stroke-miterlimit="10" x1="158.045" y1="77.646" x2="142.143" y2="85.918"/>
	<line fill="none" stroke="#252525" stroke-miterlimit="10" x1="158.045" y1="77.646" x2="142.143" y2="85.918"/>
	<line fill="none" stroke="#717171" stroke-miterlimit="10" x1="141.729" y1="68.306" x2="142.143" y2="85.918"/>
	<line fill="none" stroke="#393939" stroke-miterlimit="10" x1="142.143" y1="85.918" x2="141.729" y2="68.306"/>
	<path fill="none" stroke="#A7A7A7" stroke-miterlimit="10" d="M146.355,83.728l0.003-3.75 M146.355,83.728l0.003-3.75"/>
	<path fill="none" stroke="#B3B3B3" stroke-miterlimit="10" d="M156.628,74.06l-10.271,5.918 M156.628,74.06l-10.271,5.918"/>
	<line fill="none" stroke="#A7A7A7" stroke-miterlimit="10" x1="146.358" y1="79.978" x2="141.729" y2="68.306"/>
	<path fill="none" stroke="#717171" stroke-miterlimit="10" d="M150.475,58.483l-8.746,9.822 M150.475,58.483l-8.746,9.822
		 M141.729,68.306l4.629,11.672"/>
	<line fill="none" stroke="#C6C6C6" stroke-miterlimit="10" x1="175.292" y1="121.304" x2="185.196" y2="146.374"/>
	<line fill="none" stroke="#A5A5A5" stroke-miterlimit="10" x1="185.196" y1="146.374" x2="175.292" y2="121.304"/>
	<line fill="none" stroke="#3B3B3B" stroke-miterlimit="10" x1="187.33" y1="151.777" x2="217.634" y2="151.827"/>
	<line fill="none" stroke="#3B3B3B" stroke-miterlimit="10" x1="187.33" y1="151.777" x2="217.634" y2="151.827"/>
	<line fill="none" stroke="#A5A5A5" stroke-miterlimit="10" x1="220.009" y1="146.51" x2="185.196" y2="146.374"/>
	<line fill="none" stroke="#A5A5A5" stroke-miterlimit="10" x1="220.009" y1="146.51" x2="185.196" y2="146.374"/>
	<line fill="none" stroke="#1A1A1A" stroke-miterlimit="10" x1="226.905" y1="131.053" x2="195.97" y2="118.013"/>
	<line fill="none" stroke="#000000" stroke-miterlimit="10" x1="195.97" y1="118.013" x2="226.905" y2="131.053"/>
	<line fill="none" stroke="#1A1A1A" stroke-miterlimit="10" x1="226.905" y1="131.053" x2="217.634" y2="151.827"/>
	<line fill="none" stroke="#3B3B3B" stroke-miterlimit="10" x1="217.634" y1="151.827" x2="226.905" y2="131.053"/>
	<line fill="none" stroke="#707070" stroke-miterlimit="10" x1="238.409" y1="149.137" x2="217.634" y2="151.827"/>
	<line fill="none" stroke="#707070" stroke-miterlimit="10" x1="238.409" y1="149.137" x2="217.634" y2="151.827"/>
	<line fill="none" stroke="#BDBDBD" stroke-miterlimit="10" x1="231.005" y1="128.74" x2="234.458" y2="121.533"/>
	<line fill="none" stroke="#BDBDBD" stroke-miterlimit="10" x1="231.005" y1="128.74" x2="234.458" y2="121.533"/>
	<line fill="none" stroke="#272727" stroke-miterlimit="10" x1="239.157" y1="124.141" x2="226.905" y2="131.053"/>
	<line fill="none" stroke="#272727" stroke-miterlimit="10" x1="239.157" y1="124.141" x2="226.905" y2="131.053"/>
	<line fill="none" stroke="#A5A5A5" stroke-miterlimit="10" x1="220.009" y1="146.51" x2="222.489" y2="146.52"/>
	<line fill="none" stroke="#A5A5A5" stroke-miterlimit="10" x1="220.009" y1="146.51" x2="222.489" y2="146.52"/>
	<line fill="none" stroke="#737373" stroke-miterlimit="10" x1="238.44" y1="149.014" x2="222.489" y2="146.52"/>
	<line fill="none" stroke="#737373" stroke-miterlimit="10" x1="238.44" y1="149.014" x2="222.489" y2="146.52"/>
	<line fill="none" stroke="#BDBDBD" stroke-miterlimit="10" x1="231.005" y1="128.74" x2="222.489" y2="146.52"/>
	<line fill="none" stroke="#BDBDBD" stroke-miterlimit="10" x1="231.005" y1="128.74" x2="222.489" y2="146.52"/>
	<path fill="none" stroke="#111111" stroke-miterlimit="10" d="M177.346,126.504l18.624-8.491 M177.346,126.504l18.624-8.491"/>
	<line fill="none" stroke="#010101" stroke-miterlimit="10" x1="195.835" y1="110.798" x2="195.97" y2="118.013"/>
	<line fill="none" stroke="#010101" stroke-miterlimit="10" x1="195.835" y1="110.798" x2="195.97" y2="118.013"/>
	<line fill="none" stroke="#C6C6C6" stroke-miterlimit="10" x1="175.292" y1="121.304" x2="205.862" y2="105.668"/>
	<line fill="none" stroke="#DEDEDE" stroke-miterlimit="10" x1="205.862" y1="105.668" x2="175.292" y2="121.304"/>
	<line fill="none" stroke="#010101" stroke-miterlimit="10" x1="195.835" y1="110.798" x2="195.63" y2="99.991"/>
	<line fill="none" stroke="#010101" stroke-miterlimit="10" x1="195.835" y1="110.798" x2="195.63" y2="99.991"/>
	<line fill="none" stroke="#DEDEDE" stroke-miterlimit="10" x1="205.862" y1="105.668" x2="234.458" y2="121.533"/>
	<line fill="none" stroke="#C6C6C6" stroke-miterlimit="10" x1="234.458" y1="121.533" x2="205.862" y2="105.668"/>
	<line fill="none" stroke="#252525" stroke-miterlimit="10" x1="158.045" y1="77.646" x2="167.141" y2="72.914"/>
	<line fill="none" stroke="#252525" stroke-miterlimit="10" x1="158.045" y1="77.646" x2="167.141" y2="72.914"/>
	<line fill="none" stroke="#232323" stroke-miterlimit="10" x1="170.316" y1="66.173" x2="167.141" y2="72.914"/>
	<line fill="none" stroke="#232323" stroke-miterlimit="10" x1="170.316" y1="66.173" x2="167.141" y2="72.914"/>
	<line fill="none" stroke="#020202" stroke-miterlimit="10" x1="195.63" y1="99.991" x2="195.421" y2="88.94"/>
	<line fill="none" stroke="#020202" stroke-miterlimit="10" x1="195.63" y1="99.991" x2="195.421" y2="88.94"/>
	<line fill="none" stroke="#DEDEDE" stroke-miterlimit="10" x1="205.739" y1="94.787" x2="205.862" y2="105.668"/>
	<line fill="none" stroke="#DEDEDE" stroke-miterlimit="10" x1="205.739" y1="94.787" x2="205.862" y2="105.668"/>
	<line fill="none" stroke="#BBBBBB" stroke-miterlimit="10" x1="243.485" y1="117.069" x2="234.458" y2="121.533"/>
	<line fill="none" stroke="#BBBBBB" stroke-miterlimit="10" x1="243.485" y1="117.069" x2="234.458" y2="121.533"/>
	<line fill="none" stroke="#2E2E2E" stroke-miterlimit="10" x1="244.989" y1="120.851" x2="239.157" y2="124.141"/>
	<line fill="none" stroke="#2E2E2E" stroke-miterlimit="10" x1="244.989" y1="120.851" x2="239.157" y2="124.141"/>
	<line fill="none" stroke="#1A1A1A" stroke-miterlimit="10" x1="167.141" y1="72.914" x2="195.421" y2="88.94"/>
	<line fill="none" stroke="#030303" stroke-miterlimit="10" x1="195.421" y1="88.94" x2="167.141" y2="72.914"/>
	<path fill="none" stroke="#DEDEDE" stroke-miterlimit="10" d="M205.616,83.823l0.123,10.964 M205.616,83.823l0.123,10.964"/>
	<line fill="none" stroke="#1A1A1A" stroke-miterlimit="10" x1="226.177" y1="73.503" x2="195.421" y2="88.94"/>
	<line fill="none" stroke="#030303" stroke-miterlimit="10" x1="195.421" y1="88.94" x2="226.177" y2="73.503"/>
	<line fill="none" stroke="#DEDEDE" stroke-miterlimit="10" x1="205.536" y1="76.755" x2="174.579" y2="63.716"/>
	<line fill="none" stroke="#C6C6C6" stroke-miterlimit="10" x1="174.579" y1="63.716" x2="205.536" y2="76.755"/>
	<path fill="none" stroke="#DEDEDE" stroke-miterlimit="10" d="M205.616,83.823l-0.08-7.068 M205.616,83.823l-0.08-7.068"/>
	<path fill="none" stroke="#CECECE" stroke-miterlimit="10" d="M223.991,68.002l-18.455,8.753 M223.991,68.002l-18.455,8.753"/>
	<path fill="none" stroke="#3B3B3B" stroke-miterlimit="10" d="M201.14,48.411l15.221,0.388 M201.14,48.411l15.221,0.388"/>
	<path fill="none" stroke="#A7A7A7" stroke-miterlimit="10" d="M213.597,41.842l-1.057,0 M213.597,41.842l-1.057,0"/>
	<line fill="none" stroke="#3B3B3B" stroke-miterlimit="10" x1="216.36" y1="48.799" x2="226.177" y2="73.503"/>
	<line fill="none" stroke="#1A1A1A" stroke-miterlimit="10" x1="226.177" y1="73.503" x2="216.36" y2="48.799"/>
	<line fill="none" stroke="#BBBBBB" stroke-miterlimit="10" x1="243.485" y1="117.069" x2="247.032" y2="115.316"/>
	<line fill="none" stroke="#BBBBBB" stroke-miterlimit="10" x1="243.485" y1="117.069" x2="247.032" y2="115.316"/>
	<line fill="none" stroke="#2E2E2E" stroke-miterlimit="10" x1="244.614" y1="81.748" x2="226.177" y2="73.503"/>
	<line fill="none" stroke="#2E2E2E" stroke-miterlimit="10" x1="244.614" y1="81.748" x2="226.177" y2="73.503"/>
	<line fill="none" stroke="#2E2E2E" stroke-miterlimit="10" x1="244.989" y1="120.851" x2="245.728" y2="120.434"/>
	<line fill="none" stroke="#2E2E2E" stroke-miterlimit="10" x1="244.989" y1="120.851" x2="245.728" y2="120.434"/>
	<path fill="none" stroke="#CECECE" stroke-miterlimit="10" d="M223.991,68.002l9.695-4.599 M223.991,68.002l9.695-4.599"/>
	<line fill="none" stroke="#505050" stroke-miterlimit="10" x1="224.222" y1="47.516" x2="216.36" y2="48.799"/>
	<line fill="none" stroke="#505050" stroke-miterlimit="10" x1="224.222" y1="47.516" x2="216.36" y2="48.799"/>
	<path fill="none" stroke="#A7A7A7" stroke-miterlimit="10" d="M213.597,41.842l7.244-0.001 M213.597,41.842l7.244-0.001"/>
	<path fill="none" stroke="#B3B3B3" stroke-miterlimit="10" d="M156.628,74.06l17.95-10.343 M156.628,74.06l17.95-10.343"/>
	<line fill="none" stroke="#717171" stroke-miterlimit="10" x1="162.797" y1="44.646" x2="178.948" y2="47.847"/>
	<line fill="none" stroke="#3B3B3B" stroke-miterlimit="10" x1="178.948" y1="47.847" x2="162.797" y2="44.646"/>
	<line fill="none" stroke="#232323" stroke-miterlimit="10" x1="170.316" y1="66.173" x2="178.948" y2="47.847"/>
	<line fill="none" stroke="#232323" stroke-miterlimit="10" x1="170.316" y1="66.173" x2="178.948" y2="47.847"/>
	<path fill="none" stroke="#3B3B3B" stroke-miterlimit="10" d="M181.103,47.901l-2.155-0.055 M181.103,47.901l-2.155-0.055"/>
	<line fill="none" stroke="#A7A7A7" stroke-miterlimit="10" x1="183.6" y1="41.848" x2="174.579" y2="63.716"/>
	<line fill="none" stroke="#C6C6C6" stroke-miterlimit="10" x1="174.579" y1="63.716" x2="183.6" y2="41.848"/>
	<path fill="none" stroke="#3B3B3B" stroke-miterlimit="10" d="M181.103,47.901l20.037,0.51 M181.103,47.901l20.037,0.51"/>
	<path fill="none" stroke="#A7A7A7" stroke-miterlimit="10" d="M212.54,41.842l-28.94,0.005 M212.54,41.842l-28.94,0.005"/>
	<line fill="none" stroke="#717171" stroke-miterlimit="10" x1="162.797" y1="44.646" x2="183.6" y2="41.848"/>
	<line fill="none" stroke="#A7A7A7" stroke-miterlimit="10" x1="183.6" y1="41.848" x2="162.797" y2="44.646"/>
	<line fill="none" stroke="#C6C6C6" stroke-miterlimit="10" x1="233.687" y1="63.403" x2="220.841" y2="41.841"/>
	<line fill="none" stroke="#A7A7A7" stroke-miterlimit="10" x1="220.841" y1="41.841" x2="233.687" y2="63.403"/>
	<line fill="none" stroke="#2E2E2E" stroke-miterlimit="10" x1="244.614" y1="81.748" x2="254.47" y2="86.155"/>
	<line fill="none" stroke="#2E2E2E" stroke-miterlimit="10" x1="244.614" y1="81.748" x2="254.47" y2="86.155"/>
	<line fill="none" stroke="#ABABAB" stroke-miterlimit="10" x1="256.476" y1="78.288" x2="233.687" y2="63.403"/>
	<line fill="none" stroke="#ABABAB" stroke-miterlimit="10" x1="256.476" y1="78.288" x2="233.687" y2="63.403"/>
	<line fill="none" stroke="#505050" stroke-miterlimit="10" x1="224.222" y1="47.516" x2="236.919" y2="45.444"/>
	<line fill="none" stroke="#505050" stroke-miterlimit="10" x1="224.222" y1="47.516" x2="236.919" y2="45.444"/>
	<line fill="none" stroke="#6F6F6F" stroke-miterlimit="10" x1="258.897" y1="68.788" x2="236.919" y2="45.444"/>
	<path fill="none" stroke="#717171" stroke-miterlimit="10" d="M236.919,45.444l-16.078-3.603 M236.919,45.444l21.979,23.344"/>
	<line fill="none" stroke="#A7A7A7" stroke-miterlimit="10" x1="220.841" y1="41.841" x2="236.919" y2="45.444"/>
	<line fill="none" stroke="#6F6F6F" stroke-miterlimit="10" x1="258.897" y1="68.788" x2="254.47" y2="86.155"/>
	<line fill="none" stroke="#393939" stroke-miterlimit="10" x1="254.47" y1="86.155" x2="258.897" y2="68.788"/>
	<line fill="none" stroke="#707070" stroke-miterlimit="10" x1="238.409" y1="149.137" x2="238.858" y2="149.079"/>
	<line fill="none" stroke="#707070" stroke-miterlimit="10" x1="238.409" y1="149.137" x2="238.858" y2="149.079"/>
	<line fill="none" stroke="#2E2E2E" stroke-miterlimit="10" x1="245.728" y1="120.434" x2="255.163" y2="115.11"/>
	<line fill="none" stroke="#2E2E2E" stroke-miterlimit="10" x1="245.728" y1="120.434" x2="255.163" y2="115.11"/>
	<line fill="none" stroke="#737373" stroke-miterlimit="10" x1="238.44" y1="149.014" x2="238.858" y2="149.079"/>
	<line fill="none" stroke="#737373" stroke-miterlimit="10" x1="238.44" y1="149.014" x2="238.858" y2="149.079"/>
	<line fill="none" stroke="#717171" stroke-miterlimit="10" x1="255.56" y1="131.655" x2="238.858" y2="149.079"/>
	<line fill="none" stroke="#717171" stroke-miterlimit="10" x1="255.56" y1="131.655" x2="238.858" y2="149.079"/>
	<path fill="none" stroke="#ADADAD" stroke-miterlimit="10" d="M255.073,111.342l-8.041,3.975 M255.073,111.342l-8.041,3.975"/>
	<polyline fill="none" stroke="#393939" stroke-miterlimit="10" points="254.47,86.155 255.163,115.11 254.47,86.155 	"/>
	<line fill="none" stroke="#717171" stroke-miterlimit="10" x1="255.56" y1="131.655" x2="260.853" y2="126.133"/>
	<polyline fill="none" stroke="#717171" stroke-miterlimit="10" points="255.56,131.655 260.853,126.133 255.163,115.11 	"/>
	<line fill="none" stroke="#393939" stroke-miterlimit="10" x1="255.163" y1="115.11" x2="260.853" y2="126.133"/>
	<path fill="none" stroke="#ADADAD" stroke-miterlimit="10" d="M255.073,111.342l4.865-2.404 M255.073,111.342l4.865-2.404"/>
	<line fill="none" stroke="#717171" stroke-miterlimit="10" x1="260.853" y1="126.133" x2="259.938" y2="108.938"/>
	<path fill="none" stroke="#A7A7A7" stroke-miterlimit="10" d="M259.938,108.938l-0.832-28.931L259.938,108.938 M259.938,108.938
		l0.914,17.195"/>
	<line fill="none" stroke="#ABABAB" stroke-miterlimit="10" x1="256.476" y1="78.288" x2="259.106" y2="80.007"/>
	<line fill="none" stroke="#ABABAB" stroke-miterlimit="10" x1="256.476" y1="78.288" x2="259.106" y2="80.007"/>
	<line fill="none" stroke="#A7A7A7" stroke-miterlimit="10" x1="259.106" y1="80.007" x2="258.897" y2="68.788"/>
	<line fill="none" stroke="#6F6F6F" stroke-miterlimit="10" x1="258.897" y1="68.788" x2="259.106" y2="80.007"/>
	<path fill="none" stroke="#717171" stroke-miterlimit="10" d="M150.475,58.483l12.322-13.838 M150.475,58.483l12.322-13.838"/>
</g>
</svg>
